<?xml version="1.0" encoding="UTF-8"?>
<svg id="Layer_2" data-name="Layer 2" xmlns="http://www.w3.org/2000/svg" viewBox="0 0 805.2 120">
  <defs>
    <style>
      .cls-1 {
        fill: var(--system);
      }

      .cls-1, .cls-2 {
        stroke-width: 0px;
      }

      .cls-2 {
        fill: var(--background);
      }
    </style>
  </defs>
  <g id="Layer_1-2" data-name="Layer 1">
    <g>
      <path class="cls-2" d="M0,0h805.2v120H0C0,80,0,40,0,0ZM100.71,70.73c.52,3.45.86,6.71,1.51,9.9,1.23,6.01,4.98,9.79,10.93,11.02,3.77.78,7.66,1.32,11.51,1.37,13.74.16,27.49.14,41.24,0,3.53-.03,7.09-.54,10.58-1.15,4.43-.78,8.14-2.88,10.27-7.06,2.23-4.38,2.42-9.18,2.8-13.91-.18-.08-.25-.14-.32-.14-6.43-.01-12.87-.03-19.3,0-.3,0-.74.4-.86.71-.8,2-2.25,3.29-4.28,3.87-1.26.36-2.57.68-3.87.71-7.27.19-14.54.39-21.81.39-3.87,0-7.74-.27-11.59-.64-2.67-.25-4.9-1.49-5.95-4.17-.29-.74-.67-.92-1.41-.91-4.72.03-9.43.02-14.15.02-1.63,0-3.26,0-5.29,0ZM11.96,70.81c.27,2.78.42,5.49.8,8.16.94,6.49,4.55,10.76,10.98,12.24,3.49.8,7.07,1.38,10.64,1.59,12.54.75,25.09.85,37.64.22,4.01-.2,8.03-.83,11.96-1.65,4.64-.97,8.16-3.59,9.71-8.31,1.28-3.9,1.44-7.92,1.18-11.97,0-.1-.1-.2-.17-.3h-19.81c-.08.39-.19.73-.22,1.08-.24,2.5-1.7,3.89-4.05,4.4-1.25.27-2.52.51-3.79.53-7.11.12-14.23.24-21.34.2-2.58-.01-5.18-.31-7.74-.71-2.64-.41-4.57-1.89-5.23-4.62-.2-.82-.58-.95-1.32-.94-6,.03-11.99.01-17.99.02-.35,0-.7.04-1.25.08ZM196.3,70.73c.25,2.53.41,4.88.71,7.21.94,7.21,4.91,11.9,12.02,13.48,3.99.88,8.12,1.52,12.2,1.59,11.62.21,23.26.22,34.88,0,4.48-.09,8.98-.83,13.41-1.63,4.27-.78,7.84-2.94,10.01-6.92,2.34-4.29,2.03-8.99,2.25-13.64h-18.97c-.03.59-.05,1.1-.09,1.62-.23,2.86-1.27,4.08-4.09,4.65-1.01.21-2.05.36-3.08.4-10.87.41-21.74.42-32.6-.2-3.6-.21-5.56-1.93-6.25-5.47-.16-.82-.43-1.1-1.3-1.1-4.52.05-9.03.02-13.55.02-1.75,0-3.5,0-5.53,0ZM721.06,92.33h72.06v-15.58h-52.67v-5.94h-19.39v21.52ZM330.72,70.73c.22.37.31.54.42.69,4.76,6.77,9.51,13.54,14.31,20.27.27.38.96.67,1.45.67,10.76.04,21.51.03,32.27.03.34,0,.69-.04,1.01-.07v-21.55h-20.1v4.94c-1.08.28-1.71,0-2.22-.86-.67-1.13-1.55-2.14-2.23-3.26-.44-.71-.97-.9-1.77-.89-3.44.04-6.88.02-10.32.02h-12.82ZM643.76,70.73c.05.24.04.36.09.46,3.39,6.87,6.77,13.74,10.2,20.58.16.33.79.6,1.21.6,9.43.03,18.86.02,28.29.04.73,0,1.13-.18,1.46-.87,3.2-6.65,6.45-13.27,9.68-19.9.13-.26.21-.54.36-.91-6.92,0-13.71,0-20.5.03-.33,0-.8.32-.97.62-.66,1.23-1.25,2.5-1.81,3.77-.27.61-.63.8-1.33.91-2.2.35-3.54-.42-4.13-2.59-.15-.57-.55-1.07-.75-1.63-.31-.87-.81-1.16-1.77-1.16-6.27.06-12.55.03-18.82.03h-1.2ZM562.47,70.81h-20.65v21.52h20.65v-21.52ZM596.92,70.79v21.51h20.58v-21.51h-20.58ZM309.92,92.34v-21.52h-19.85v21.52h19.85ZM479.26,83.69c-.57-1.13-1.14-2.12-1.59-3.16-.38-.9-.95-1.15-1.91-1.15-27.58.03-55.16.02-82.75.02-.28,0-.57-.04-.84.01-.24.05-.57.15-.68.34-.71,1.27-1.38,2.57-2.1,3.94h89.86ZM188.59,40.3c-.3-1.07-.63-2.05-.84-3.06-.21-1.01-.74-1.25-1.75-1.25-27.18.03-54.36.02-81.54.02-.4,0-.8,0-1.32,0-.42,1.41-.83,2.81-1.27,4.29h86.71ZM281.44,40.3c-.26-1.04-.53-2-.72-2.97-.2-1.03-.72-1.35-1.8-1.35-26.17.04-52.35.03-78.52.03-.28,0-.56-.03-.84.01-.21.03-.55.1-.6.24-.5,1.3-.96,2.62-1.46,4.04h83.95ZM106.28,31.61h77.94c-1.82-1.64-3.77-2.67-5.94-3.31-4.06-1.19-8.26-1.55-12.44-1.58-13.7-.11-27.41-.12-41.11.01-3.57.03-7.15.61-10.7,1.14-2.87.43-5.46,1.63-7.75,3.73ZM93.27,40.3c-.23-1.01-.47-1.93-.63-2.87-.19-1.05-.63-1.46-1.82-1.45-25.11.05-50.21.04-75.32.04-.28,0-.58-.06-.83.02-.26.08-.63.25-.7.47-.41,1.22-.75,2.47-1.15,3.8h80.46ZM474.75,75.03c-.61-1.18-1.18-2.15-1.61-3.17-.38-.89-.94-1.16-1.91-1.16-20.43.03-40.85.02-61.28.02-4.24,0-8.47,0-12.71.01-.39,0-.99.08-1.15.34-.76,1.25-1.4,2.56-2.13,3.95h80.79ZM512.96,31.61h78.35v-4.17h-78.35v4.17ZM591.32,40.32v-4.23h-78.33v4.23h78.33ZM276.59,31.63l.19-.4c-1.87-.81-3.69-1.79-5.63-2.4-4.99-1.57-10.2-2.03-15.38-2.1-10.35-.16-20.7-.21-31.04.04-4.89.12-9.77.91-14.62,1.6-2.71.39-5.3,1.34-7.65,3.27h74.13ZM790.11,53.45h-69.05v4.2h69.05v-4.2ZM721.05,66.35h69.07v-4.25h-69.07v4.25ZM89.39,31.66c-2.55-2.31-5.36-3.46-8.4-4.05-5.64-1.1-11.36-1.16-17.08-1.18-11.75-.03-23.51-.28-35.21,1.18-3.22.4-6.38,1.06-9.28,2.62-.67.36-1.27.82-1.91,1.24.04.06.08.13.12.19h71.76ZM721.03,31.6h71.72v-4.14h-71.72v4.14ZM721.11,36.08v4.19h71.65v-4.19h-71.65ZM281.95,62.14h-45.05v4.2h45.05v-4.2ZM290.04,40.26h43.59c-.84-1.21-1.63-2.26-2.32-3.37-.43-.7-.97-.89-1.77-.89-12.75.02-25.49.02-38.24.02h-1.27v4.25ZM456.62,40.3c-.69-1.33-1.3-2.58-1.99-3.78-.15-.26-.62-.48-.94-.48-12.79-.02-25.58-.02-38.38-.01-.29,0-.74.07-.85.26-.74,1.29-1.42,2.61-2.16,4.02h44.31ZM327.6,31.66c-.88-1.26-1.69-2.3-2.37-3.42-.44-.72-.97-.89-1.76-.89-10.75.02-21.51.02-32.26.02-.39,0-.78,0-1.15,0v4.3h37.54ZM452.12,31.66c-.72-1.37-1.3-2.59-1.99-3.75-.17-.29-.67-.53-1.02-.53-9.74-.03-19.49-.02-29.23-.01-.29,0-.73.07-.84.26-.74,1.29-1.41,2.62-2.16,4.03h35.25ZM318.44,53.35c.92,1.32,1.72,2.37,2.41,3.48.43.69.94.92,1.75.92,7.34-.03,14.69-.02,22.03-.02.34,0,.68-.04,1.18-.07-.83-1.2-1.62-2.25-2.31-3.36-.45-.72-.97-.98-1.84-.97-7.3.04-14.61.02-21.91.02-.35,0-.69,0-1.32,0ZM351.95,66.41c-.92-1.32-1.71-2.37-2.4-3.48-.43-.69-.94-.93-1.75-.92-7.35.03-14.7.02-22.05.02-.34,0-.68.04-1.15.07.87,1.24,1.68,2.33,2.41,3.47.42.65.9.86,1.67.85,7.35-.03,14.7-.02,22.05-.02h1.23ZM236.92,55.56v2.1h45.12v-2.1h-45.12ZM312.35,44.68c.88,1.26,1.7,2.36,2.43,3.52.41.66.91.85,1.67.85,7.35-.03,14.7-.02,22.06-.02.34,0,.67-.04,1.22-.08-1-1.42-1.86-2.7-2.79-3.93-.17-.22-.62-.32-.93-.32-7.79-.02-15.58-.01-23.65-.01ZM422.52,62.03c-7.16,0-14.07,0-20.98.01-.29,0-.72.09-.83.29-.75,1.3-1.42,2.63-2.19,4.08,7.22,0,14.21,0,21.19-.02.26,0,.65-.17.77-.38.69-1.25,1.31-2.53,2.04-3.98ZM470.26,66.41c-.68-1.31-1.3-2.38-1.8-3.5-.31-.69-.74-.89-1.47-.89-6.59.03-13.19.01-19.78.02-.25,0-.5.07-.84.12.59,1.18,1.17,2.22,1.66,3.31.32.71.73.98,1.54.97,3.56-.05,7.11-.02,10.67-.02,3.27,0,6.54,0,10.03,0ZM441.89,53.35c.67,1.34,1.18,2.51,1.84,3.59.23.38.82.76,1.25.76,6.67.05,13.33.03,20,.03.19,0,.37-.03.72-.05-.66-1.27-1.3-2.4-1.84-3.58-.28-.61-.67-.77-1.3-.76-2.16.04-4.31.01-6.47.01-4.66,0-9.33,0-14.19,0ZM403.22,57.5c.12.13.15.18.17.18,6.91.02,13.82.03,20.72.03.25,0,.63-.1.72-.28.71-1.31,1.36-2.64,2.08-4.09-7.07,0-13.9,0-20.73.02-.34,0-.83.18-.98.43-.72,1.22-1.36,2.49-2,3.7ZM658.67,57.73c-.64-1.3-1.23-2.35-1.66-3.46-.31-.79-.78-.94-1.55-.93-4.87.03-9.75.02-14.62.02h-5.79c.61,1.24,1.2,2.31,1.67,3.44.31.75.75.96,1.54.96,6.43-.03,12.86-.02,19.3-.02.31,0,.61,0,1.12,0ZM662.87,66.41c-.61-1.28-1.17-2.33-1.62-3.43-.3-.73-.72-.98-1.53-.98-6.47.04-12.95.02-19.42.02-.26,0-.53.02-.94.04.62,1.27,1.12,2.44,1.77,3.52.23.38.81.76,1.24.78,2.4.07,4.79.04,7.19.04,4.35,0,8.7,0,13.32,0ZM703.6,53.35c-7.09,0-13.92,0-20.75.01-.25,0-.64.08-.72.25-.69,1.31-1.32,2.66-2.03,4.12,7.09,0,13.91,0,20.74-.02.29,0,.72-.21.85-.45.65-1.22,1.22-2.47,1.92-3.91ZM699.29,62.2c-.2-.1-.27-.16-.34-.16-6.76,0-13.51-.01-20.27,0-.27,0-.69.14-.8.34-.66,1.26-1.24,2.55-1.85,3.82.2.11.26.18.33.18,6.76.01,13.51.02,20.27,0,.3,0,.72-.31.87-.59.63-1.15,1.18-2.35,1.79-3.6ZM384.87,92.27c.16.07.22.12.29.12,7.18,0,14.37.01,21.55,0,.25,0,.64-.06.73-.22.71-1.31,1.36-2.64,2.09-4.11-7.43,0-14.61,0-21.8.02-.3,0-.73.18-.86.41-.71,1.23-1.34,2.51-2,3.78ZM459.17,88.06c.62,1.22,1.21,2.26,1.66,3.35.33.79.79,1.01,1.63,1.01,6.72-.04,13.43-.02,20.15-.02h1.22c-.74-1.43-1.37-2.71-2.08-3.94-.13-.23-.58-.38-.89-.38-7.16-.02-14.31-.02-21.69-.02ZM562.43,66.35v-4.26h-20.6v4.26h20.6ZM617.53,53.4h-20.61v4.26h20.61v-4.26ZM562.44,53.44h-20.64v4.22h20.64v-4.22ZM507.4,57.67v-4.23h-20.58v4.23h20.58ZM617.48,66.35v-4.25h-20.59v4.25h20.59ZM486.8,66.33h20.58v-4.23h-20.58v4.23ZM646,31.7c-.61-1.27-1.18-2.35-1.65-3.48-.29-.71-.72-.88-1.45-.87-6.55.03-13.1.02-19.64.02-.29,0-.58.04-1.01.07.66,1.35,1.21,2.57,1.86,3.75.14.26.61.49.93.49,6.91.03,13.81.02,20.96.02ZM654.29,49.03c-1.4-4.32-1.44-4.35-5.64-4.35-1.08,0-2.15,0-3.23,0h-14.64c.61,1.25,1.2,2.37,1.69,3.53.28.66.68.84,1.37.84,3.63-.03,7.26-.02,10.89-.02,3.15,0,6.3,0,9.56,0ZM716.28,27.36c-7.14,0-14.11,0-21.08.02-.25,0-.6.22-.72.44-.63,1.23-1.21,2.49-1.81,3.74.16.07.22.13.29.13,6.86,0,13.73.01,20.59,0,.26,0,.66-.15.77-.36.67-1.26,1.27-2.54,1.96-3.96ZM626.49,36.02c.6,1.22,1.15,2.19,1.56,3.22.34.88.83,1.16,1.78,1.15,6.36-.05,12.71-.03,19.07-.03h1.32c-.61-1.26-1.19-2.35-1.66-3.48-.3-.71-.73-.89-1.46-.88-3.96.04-7.92.02-11.87.02-2.83,0-5.66,0-8.73,0ZM437.47,44.68c.64,1.26,1.24,2.32,1.72,3.44.32.76.79.93,1.56.93,6.43-.03,12.86-.02,19.29-.02.33,0,.66-.05,1.09-.08-.63-1.22-1.24-2.3-1.74-3.42-.31-.69-.75-.87-1.48-.86-6.43.03-12.86.02-19.29.02h-1.14ZM189.22,44.74h-22.67c.72,1.1,1.58,2.2,2.18,3.42.35.71.7.89,1.42.89,6.11-.03,12.23-.01,18.34-.02.34,0,.68-.05,1.08-.08-.12-1.46-.24-2.8-.36-4.21ZM124.55,44.75h-23.3c-.1,1.43-.2,2.81-.3,4.28,6.74,0,13.32,0,19.89-.02.26,0,.66-.31.74-.56.51-1.53,1.41-2.74,2.97-3.7ZM711.95,36.21c-.15-.11-.17-.15-.2-.15-6.87-.01-13.75-.03-20.62-.03-.24,0-.62.1-.71.28-.67,1.29-1.28,2.61-1.97,4.05,7.11,0,13.98,0,20.86-.01.27,0,.69-.14.8-.34.66-1.26,1.25-2.55,1.85-3.8ZM684.37,48.85c.21.1.28.16.35.16,6.8,0,13.6.02,20.39,0,.26,0,.65-.17.76-.38.67-1.26,1.27-2.55,1.96-3.95-7.1,0-14.01,0-20.91.01-.24,0-.6.14-.69.32-.65,1.26-1.25,2.55-1.86,3.84ZM407.79,48.86c.22.09.29.15.36.15,6.79,0,13.58.02,20.37,0,.27,0,.67-.15.78-.35.69-1.24,1.31-2.52,1.98-3.84-.26-.08-.37-.13-.47-.13-6.71,0-13.42-.01-20.13,0-.28,0-.71.11-.82.3-.73,1.26-1.38,2.57-2.07,3.87ZM360.15,57.63h20.02v-4.19h-20.02v4.19ZM360.17,66.31h20.04v-4.21h-20.04v4.21ZM12.34,48.97h19.99c.72-1.47,1.38-2.84,2.06-4.23H12.34v4.23ZM290.04,66.35h19.73v-4.25h-19.73v4.25ZM169.98,57.67h19.69v-4.27h-19.69v4.27ZM31.79,53.45H12.04v4.2h19.75v-4.2ZM31.68,66.35v-4.23H12.09v4.23h19.59ZM290.03,57.65h19.63v-4.23h-19.63v4.23ZM170.05,66.34h19.66v-4.25h-19.66v4.25ZM120.7,53.43h-19.9v4.25h19.65c.08-1.41.16-2.79.25-4.25ZM196.44,49.03c6.59,0,12.98,0,19.37-.02.26,0,.66-.16.77-.36.71-1.32,1.35-2.68,1.94-3.89h-21.72c-.12,1.42-.24,2.76-.36,4.27ZM196.28,66.33h19.66v-4.22h-19.66v4.22ZM617.52,44.73h-20.63v4.24h20.63v-4.24ZM541.85,44.73v4.24h20.6v-4.24h-20.6ZM120.41,66.36v-4.25h-19.59v4.25h19.59ZM215.95,53.41h-19.64v4.24h19.64v-4.24ZM486.8,48.96h20.58v-4.18h-20.58v4.18ZM486.81,70.79v4.21h20.57v-4.21h-20.57ZM596.89,40.28h20.59v-4.2h-20.59v4.2ZM507.42,36.07h-20.61v4.21h20.61v-4.21ZM617.52,27.44h-20.64v4.19h20.64v-4.19ZM486.8,83.67h20.58v-4.18h-20.58v4.18ZM507.42,27.42h-20.61v4.2h20.61v-4.2ZM507.42,88.16h-20.61v4.16h20.61v-4.16ZM93.62,48.97v-4.24h-20.68c.36,1.41.72,2.81,1.08,4.24h19.59ZM380.19,44.76h-20.01v4.22h20.01v-4.22ZM380.23,36.09h-20.05v4.17h20.05v-4.17ZM360.14,31.62h20.04v-4.18h-20.04v4.18ZM281.83,49v-4.22h-20.31c.3,1.44.59,2.81.88,4.22h19.43ZM309.63,44.73h-19.59v4.22h19.59v-4.22ZM721.07,48.96h19.33v-4.21h-19.33v4.21Z"/>
      <path class="cls-1" d="M100.71,70.73c2.03,0,3.66,0,5.29,0,4.72,0,9.43.02,14.15-.02.74,0,1.12.18,1.41.91,1.05,2.68,3.28,3.92,5.95,4.17,3.85.37,7.73.64,11.59.64,7.27,0,14.54-.19,21.81-.39,1.3-.03,2.61-.35,3.87-.71,2.03-.58,3.48-1.87,4.28-3.87.12-.31.56-.7.86-.71,6.43-.03,12.87-.02,19.3,0,.07,0,.14.06.32.14-.37,4.73-.57,9.54-2.8,13.91-2.13,4.18-5.84,6.29-10.27,7.06-3.49.61-7.05,1.12-10.58,1.15-13.74.13-27.49.15-41.24,0-3.84-.04-7.73-.59-11.51-1.37-5.96-1.23-9.71-5.01-10.93-11.02-.65-3.19-.99-6.45-1.51-9.9Z"/>
      <path class="cls-1" d="M11.96,70.81c.55-.04.9-.08,1.25-.08,6,0,11.99,0,17.99-.02.74,0,1.12.12,1.32.94.65,2.73,2.59,4.21,5.23,4.62,2.56.4,5.16.7,7.74.71,7.11.03,14.23-.08,21.34-.2,1.27-.02,2.54-.26,3.79-.53,2.36-.5,3.81-1.9,4.05-4.4.03-.35.14-.69.22-1.08h19.81c.06.11.16.2.17.3.26,4.06.1,8.08-1.18,11.97-1.55,4.72-5.07,7.33-9.71,8.31-3.93.83-7.95,1.45-11.96,1.65-12.54.63-25.1.53-37.64-.22-3.57-.21-7.15-.79-10.64-1.59-6.43-1.48-10.04-5.75-10.98-12.24-.39-2.67-.54-5.38-.8-8.16Z"/>
      <path class="cls-1" d="M196.3,70.73c2.03,0,3.78,0,5.53,0,4.52,0,9.03.03,13.55-.02.87,0,1.14.27,1.3,1.1.69,3.54,2.65,5.26,6.25,5.47,10.86.63,21.73.61,32.6.2,1.03-.04,2.07-.19,3.08-.4,2.81-.57,3.86-1.79,4.09-4.65.04-.51.06-1.02.09-1.62h18.97c-.22,4.65.09,9.35-2.25,13.64-2.17,3.98-5.73,6.14-10.01,6.92-4.43.81-8.93,1.54-13.41,1.63-11.62.23-23.26.22-34.88,0-4.08-.07-8.2-.71-12.2-1.59-7.11-1.58-11.08-6.27-12.02-13.48-.3-2.33-.47-4.68-.71-7.21Z"/>
      <path class="cls-1" d="M721.06,92.33v-21.52h19.39v5.94h52.67v15.58h-72.06Z"/>
      <path class="cls-1" d="M330.72,70.73h12.82c3.44,0,6.88.02,10.32-.02.79,0,1.33.18,1.77.89.69,1.12,1.56,2.13,2.23,3.26.51.86,1.14,1.14,2.22.86v-4.94h20.1v21.55c-.32.02-.67.07-1.01.07-10.76,0-21.51.01-32.27-.03-.49,0-1.18-.29-1.45-.67-4.8-6.74-9.55-13.51-14.31-20.27-.11-.15-.2-.32-.42-.69Z"/>
      <path class="cls-1" d="M643.76,70.73h1.2c6.27,0,12.55.03,18.82-.03.97,0,1.47.29,1.77,1.16.2.56.6,1.06.75,1.63.59,2.16,1.93,2.94,4.13,2.59.69-.11,1.06-.3,1.33-.91.56-1.28,1.15-2.54,1.81-3.77.16-.3.64-.62.97-.62,6.79-.04,13.58-.03,20.5-.03-.14.37-.23.65-.36.91-3.23,6.63-6.47,13.26-9.68,19.9-.33.69-.74.87-1.46.87-9.43-.02-18.86,0-28.29-.04-.41,0-1.04-.27-1.21-.6-3.43-6.84-6.81-13.71-10.2-20.58-.05-.1-.05-.22-.09-.46Z"/>
      <path class="cls-1" d="M562.47,70.81v21.52h-20.65v-21.52h20.65Z"/>
      <path class="cls-1" d="M596.92,70.79h20.58v21.51h-20.58v-21.51Z"/>
      <path class="cls-1" d="M309.92,92.34h-19.85v-21.52h19.85v21.52Z"/>
      <path class="cls-1" d="M479.26,83.69h-89.86c.72-1.37,1.39-2.67,2.1-3.94.1-.18.43-.28.68-.34.27-.06.56-.01.84-.01,27.58,0,55.16,0,82.75-.02.97,0,1.53.25,1.91,1.15.45,1.05,1.02,2.04,1.59,3.16Z"/>
      <path class="cls-1" d="M188.59,40.3h-86.71c.44-1.48.85-2.87,1.27-4.29.52,0,.92,0,1.32,0,27.18,0,54.36,0,81.54-.02,1,0,1.54.24,1.75,1.25.21,1.01.54,1.99.84,3.06Z"/>
      <path class="cls-1" d="M281.44,40.3h-83.95c.5-1.41.96-2.73,1.46-4.04.05-.14.39-.21.6-.24.27-.04.56-.01.84-.01,26.17,0,52.35,0,78.52-.03,1.09,0,1.6.32,1.8,1.35.19.97.47,1.92.72,2.97Z"/>
      <path class="cls-1" d="M106.28,31.61c2.29-2.11,4.89-3.31,7.75-3.73,3.55-.53,7.13-1.11,10.7-1.14,13.7-.13,27.41-.12,41.11-.01,4.18.03,8.38.39,12.44,1.58,2.17.63,4.12,1.67,5.94,3.31h-77.94Z"/>
      <path class="cls-1" d="M93.27,40.3H12.81c.39-1.33.73-2.58,1.15-3.8.07-.22.44-.39.7-.47.26-.08.55-.02.83-.02,25.11,0,50.21.01,75.32-.04,1.19,0,1.64.4,1.82,1.45.17.93.41,1.85.63,2.87Z"/>
      <path class="cls-1" d="M474.75,75.03h-80.79c.73-1.39,1.37-2.7,2.13-3.95.16-.26.75-.33,1.15-.34,4.24-.02,8.47-.01,12.71-.01,20.43,0,40.85,0,61.28-.02.97,0,1.53.27,1.91,1.16.44,1.02,1,1.98,1.61,3.17Z"/>
      <path class="cls-1" d="M512.96,31.61v-4.17h78.35v4.17h-78.35Z"/>
      <path class="cls-1" d="M591.32,40.32h-78.33v-4.23h78.33v4.23Z"/>
      <path class="cls-1" d="M276.59,31.63h-74.13c2.35-1.93,4.93-2.89,7.65-3.27,4.86-.69,9.74-1.48,14.62-1.6,10.34-.24,20.7-.19,31.04-.04,5.18.08,10.39.54,15.38,2.1,1.94.61,3.75,1.59,5.63,2.4l-.19.4Z"/>
      <path class="cls-1" d="M790.11,53.45v4.2h-69.05v-4.2h69.05Z"/>
      <path class="cls-1" d="M721.05,66.35v-4.25h69.07v4.25h-69.07Z"/>
      <path class="cls-1" d="M89.39,31.66H17.64c-.04-.06-.08-.13-.12-.19.63-.42,1.24-.88,1.91-1.24,2.89-1.56,6.06-2.22,9.28-2.62,11.7-1.46,23.46-1.21,35.21-1.18,5.71.02,11.44.08,17.08,1.18,3.05.59,5.85,1.75,8.4,4.05Z"/>
      <path class="cls-1" d="M721.03,31.6v-4.14h71.72v4.14h-71.72Z"/>
      <path class="cls-1" d="M721.11,36.08h71.65v4.19h-71.65v-4.19Z"/>
      <path class="cls-1" d="M281.95,62.14v4.2h-45.05v-4.2h45.05Z"/>
      <path class="cls-1" d="M290.04,40.26v-4.25h1.27c12.75,0,25.49,0,38.24-.02.8,0,1.33.19,1.77.89.69,1.11,1.48,2.16,2.32,3.37h-43.59Z"/>
      <path class="cls-1" d="M456.62,40.3h-44.31c.74-1.4,1.42-2.73,2.16-4.02.11-.19.56-.26.85-.26,12.79-.01,25.59-.01,38.38.01.32,0,.79.22.94.48.69,1.2,1.3,2.45,1.99,3.78Z"/>
      <path class="cls-1" d="M327.6,31.66h-37.54v-4.3c.37,0,.76,0,1.15,0,10.75,0,21.51,0,32.26-.02.79,0,1.32.17,1.76.89.68,1.12,1.49,2.17,2.37,3.42Z"/>
      <path class="cls-1" d="M452.12,31.66h-35.25c.75-1.41,1.42-2.74,2.16-4.03.11-.19.55-.26.84-.26,9.74-.01,19.49-.02,29.23.01.35,0,.85.24,1.02.53.69,1.16,1.28,2.38,1.99,3.75Z"/>
      <path class="cls-1" d="M318.44,53.35c.63,0,.97,0,1.32,0,7.3,0,14.61.02,21.91-.02.87,0,1.39.25,1.84.97.69,1.11,1.47,2.15,2.31,3.36-.5.03-.84.07-1.18.07-7.34,0-14.69-.01-22.03.02-.81,0-1.32-.23-1.75-.92-.7-1.11-1.49-2.16-2.41-3.48Z"/>
      <path class="cls-1" d="M351.95,66.41h-1.23c-7.35,0-14.7-.01-22.05.02-.76,0-1.25-.2-1.67-.85-.72-1.14-1.54-2.23-2.41-3.47.47-.03.81-.07,1.15-.07,7.35,0,14.7.01,22.05-.02.82,0,1.32.23,1.75.92.7,1.11,1.49,2.16,2.4,3.48Z"/>
      <path class="cls-1" d="M236.92,55.56h45.12v2.1h-45.12v-2.1Z"/>
      <path class="cls-1" d="M312.35,44.68c8.07,0,15.86,0,23.65.01.32,0,.77.1.93.32.93,1.23,1.79,2.51,2.79,3.93-.55.04-.89.08-1.22.08-7.35,0-14.7,0-22.06.02-.76,0-1.25-.19-1.67-.85-.72-1.16-1.55-2.25-2.43-3.52Z"/>
      <path class="cls-1" d="M422.52,62.03c-.74,1.45-1.36,2.73-2.04,3.98-.12.21-.5.38-.77.38-6.99.02-13.97.02-21.19.02.77-1.45,1.45-2.79,2.19-4.08.11-.19.55-.28.83-.29,6.91-.02,13.82-.01,20.98-.01Z"/>
      <path class="cls-1" d="M470.26,66.41c-3.49,0-6.76,0-10.03,0-3.56,0-7.11-.03-10.67.02-.81.01-1.22-.26-1.54-.97-.49-1.09-1.06-2.14-1.66-3.31.34-.05.59-.12.84-.12,6.59,0,13.19,0,19.78-.02.74,0,1.16.2,1.47.89.5,1.12,1.12,2.19,1.8,3.5Z"/>
      <path class="cls-1" d="M441.89,53.35c4.87,0,9.53,0,14.19,0,2.16,0,4.31.02,6.47-.01.64-.01,1.02.15,1.3.76.55,1.18,1.18,2.31,1.84,3.58-.35.03-.53.05-.72.05-6.67,0-13.33.02-20-.03-.43,0-1.02-.38-1.25-.76-.66-1.08-1.17-2.25-1.84-3.59Z"/>
      <path class="cls-1" d="M403.22,57.5c.64-1.21,1.27-2.49,2-3.7.15-.25.64-.43.98-.43,6.83-.02,13.66-.02,20.73-.02-.73,1.44-1.38,2.78-2.08,4.09-.1.18-.47.28-.72.28-6.91,0-13.82-.01-20.72-.03-.03,0-.05-.05-.17-.18Z"/>
      <path class="cls-1" d="M658.67,57.73c-.51,0-.81,0-1.12,0-6.43,0-12.87-.01-19.3.02-.79,0-1.23-.21-1.54-.96-.46-1.13-1.06-2.2-1.67-3.44h5.79c4.87,0,9.75.02,14.62-.02.77,0,1.24.15,1.55.93.44,1.11,1.03,2.16,1.66,3.46Z"/>
      <path class="cls-1" d="M662.87,66.41c-4.62,0-8.97,0-13.32,0-2.4,0-4.8.04-7.19-.04-.43-.01-1.01-.4-1.24-.78-.64-1.08-1.14-2.25-1.77-3.52.42-.02.68-.04.94-.04,6.47,0,12.95.02,19.42-.02.81,0,1.23.25,1.53.98.45,1.09,1.01,2.14,1.62,3.43Z"/>
      <path class="cls-1" d="M703.6,53.35c-.69,1.43-1.27,2.69-1.92,3.91-.13.24-.56.45-.85.45-6.83.03-13.66.02-20.74.02.71-1.47,1.35-2.81,2.03-4.12.09-.17.48-.25.72-.25,6.83-.01,13.66-.01,20.75-.01Z"/>
      <path class="cls-1" d="M699.29,62.2c-.61,1.25-1.16,2.44-1.79,3.6-.15.28-.57.59-.87.59-6.76.03-13.51.01-20.27,0-.06,0-.13-.07-.33-.18.61-1.27,1.19-2.57,1.85-3.82.11-.2.52-.34.8-.34,6.76-.02,13.51-.01,20.27,0,.07,0,.14.06.34.16Z"/>
      <path class="cls-1" d="M384.87,92.27c.66-1.27,1.29-2.54,2-3.78.13-.23.57-.41.86-.41,7.18-.02,14.37-.02,21.8-.02-.73,1.46-1.38,2.8-2.09,4.11-.09.16-.48.22-.73.22-7.18,0-14.37,0-21.55,0-.06,0-.13-.05-.29-.12Z"/>
      <path class="cls-1" d="M459.17,88.06c7.38,0,14.53,0,21.69.02.3,0,.76.15.89.38.71,1.23,1.34,2.51,2.08,3.94h-1.22c-6.72,0-13.43-.02-20.15.02-.83,0-1.3-.22-1.63-1.01-.45-1.09-1.05-2.13-1.66-3.35Z"/>
      <path class="cls-1" d="M562.43,66.35h-20.6v-4.26h20.6v4.26Z"/>
      <path class="cls-1" d="M617.53,53.4v4.26h-20.61v-4.26h20.61Z"/>
      <path class="cls-1" d="M562.44,53.44v4.22h-20.64v-4.22h20.64Z"/>
      <path class="cls-1" d="M507.4,57.67h-20.58v-4.23h20.58v4.23Z"/>
      <path class="cls-1" d="M617.48,66.35h-20.59v-4.25h20.59v4.25Z"/>
      <path class="cls-1" d="M486.8,66.33v-4.23h20.58v4.23h-20.58Z"/>
      <path class="cls-1" d="M646,31.7c-7.15,0-14.05,0-20.96-.02-.32,0-.78-.23-.93-.49-.65-1.18-1.21-2.41-1.86-3.75.42-.03.71-.07,1.01-.07,6.55,0,13.1,0,19.64-.02.73,0,1.16.16,1.45.87.47,1.13,1.04,2.21,1.65,3.48Z"/>
      <path class="cls-1" d="M654.29,49.03c-3.26,0-6.41,0-9.56,0-3.63,0-7.26-.02-10.89.02-.69,0-1.09-.18-1.37-.84-.5-1.16-1.09-2.28-1.69-3.53h14.64c1.08,0,2.15,0,3.23,0,4.21,0,4.25.03,5.64,4.35Z"/>
      <path class="cls-1" d="M716.28,27.36c-.69,1.42-1.29,2.71-1.96,3.96-.11.2-.5.36-.77.36-6.86.02-13.73,0-20.59,0-.07,0-.13-.06-.29-.13.6-1.25,1.17-2.51,1.81-3.74.11-.22.47-.44.72-.44,6.97-.02,13.94-.02,21.08-.02Z"/>
      <path class="cls-1" d="M626.49,36.02c3.07,0,5.9,0,8.73,0,3.96,0,7.92.02,11.87-.02.73,0,1.17.17,1.46.88.47,1.13,1.05,2.22,1.66,3.48h-1.32c-6.36,0-12.71-.02-19.07.03-.95,0-1.44-.27-1.78-1.15-.4-1.03-.96-2-1.56-3.22Z"/>
      <path class="cls-1" d="M437.47,44.68h1.14c6.43,0,12.86.01,19.29-.02.73,0,1.17.18,1.48.86.51,1.12,1.11,2.19,1.74,3.42-.43.03-.76.08-1.09.08-6.43,0-12.86,0-19.29.02-.77,0-1.24-.17-1.56-.93-.48-1.12-1.08-2.18-1.72-3.44Z"/>
      <path class="cls-1" d="M189.22,44.74c.12,1.41.23,2.75.36,4.21-.4.03-.74.08-1.08.08-6.11,0-12.23,0-18.34.02-.73,0-1.07-.18-1.42-.89-.6-1.22-1.46-2.32-2.18-3.42h22.67Z"/>
      <path class="cls-1" d="M124.55,44.75c-1.56.96-2.46,2.17-2.97,3.7-.08.25-.48.56-.74.56-6.58.03-13.15.02-19.89.02.11-1.48.2-2.85.3-4.28h23.3Z"/>
      <path class="cls-1" d="M711.95,36.21c-.6,1.25-1.19,2.54-1.85,3.8-.11.2-.52.34-.8.34-6.87.02-13.75.01-20.86.01.7-1.45,1.31-2.77,1.97-4.05.09-.17.47-.28.71-.28,6.87,0,13.75.01,20.62.03.03,0,.06.04.2.15Z"/>
      <path class="cls-1" d="M684.37,48.85c.61-1.28,1.21-2.57,1.86-3.84.09-.18.45-.32.69-.32,6.91-.02,13.82-.01,20.91-.01-.69,1.41-1.29,2.7-1.96,3.95-.11.21-.5.38-.76.38-6.8.02-13.6,0-20.39,0-.07,0-.14-.06-.35-.16Z"/>
      <path class="cls-1" d="M407.79,48.86c.68-1.3,1.34-2.6,2.07-3.87.11-.2.54-.3.82-.3,6.71-.01,13.42,0,20.13,0,.1,0,.21.06.47.13-.67,1.32-1.29,2.6-1.98,3.84-.11.2-.51.35-.78.35-6.79.01-13.58,0-20.37,0-.07,0-.14-.06-.36-.15Z"/>
      <path class="cls-1" d="M360.15,57.63v-4.19h20.02v4.19h-20.02Z"/>
      <path class="cls-1" d="M360.17,66.31v-4.21h20.04v4.21h-20.04Z"/>
      <path class="cls-1" d="M12.34,48.97v-4.23h22.05c-.68,1.39-1.34,2.76-2.06,4.23H12.34Z"/>
      <path class="cls-1" d="M290.04,66.35v-4.25h19.73v4.25h-19.73Z"/>
      <path class="cls-1" d="M169.98,57.67v-4.27h19.69v4.27h-19.69Z"/>
      <path class="cls-1" d="M31.79,53.45v4.2H12.04v-4.2h19.75Z"/>
      <path class="cls-1" d="M31.68,66.35H12.09v-4.23h19.59v4.23Z"/>
      <path class="cls-1" d="M290.03,57.65v-4.23h19.63v4.23h-19.63Z"/>
      <path class="cls-1" d="M170.05,66.34v-4.25h19.66v4.25h-19.66Z"/>
      <path class="cls-1" d="M120.7,53.43c-.08,1.46-.16,2.84-.25,4.25h-19.65v-4.25h19.9Z"/>
      <path class="cls-1" d="M196.44,49.03c.13-1.5.24-2.84.36-4.27h21.72c-.6,1.21-1.24,2.56-1.94,3.89-.11.2-.5.36-.77.36-6.39.02-12.78.02-19.37.02Z"/>
      <path class="cls-1" d="M196.28,66.33v-4.22h19.66v4.22h-19.66Z"/>
      <path class="cls-1" d="M617.52,44.73v4.24h-20.63v-4.24h20.63Z"/>
      <path class="cls-1" d="M541.85,44.73h20.6v4.24h-20.6v-4.24Z"/>
      <path class="cls-1" d="M120.41,66.36h-19.59v-4.25h19.59v4.25Z"/>
      <path class="cls-1" d="M215.95,53.41v4.24h-19.64v-4.24h19.64Z"/>
      <path class="cls-1" d="M486.8,48.96v-4.18h20.58v4.18h-20.58Z"/>
      <path class="cls-1" d="M486.81,70.79h20.57v4.21h-20.57v-4.21Z"/>
      <path class="cls-1" d="M596.89,40.28v-4.2h20.59v4.2h-20.59Z"/>
      <path class="cls-1" d="M507.42,36.07v4.21h-20.61v-4.21h20.61Z"/>
      <path class="cls-1" d="M617.52,27.44v4.19h-20.64v-4.19h20.64Z"/>
      <path class="cls-1" d="M486.8,83.67v-4.18h20.58v4.18h-20.58Z"/>
      <path class="cls-1" d="M507.42,27.42v4.2h-20.61v-4.2h20.61Z"/>
      <path class="cls-1" d="M507.42,88.16v4.16h-20.61v-4.16h20.61Z"/>
      <path class="cls-1" d="M93.62,48.97h-19.59c-.37-1.43-.72-2.84-1.08-4.24h20.68v4.24Z"/>
      <path class="cls-1" d="M380.19,44.76v4.22h-20.01v-4.22h20.01Z"/>
      <path class="cls-1" d="M380.23,36.09v4.17h-20.05v-4.17h20.05Z"/>
      <path class="cls-1" d="M360.14,31.62v-4.18h20.04v4.18h-20.04Z"/>
      <path class="cls-1" d="M281.83,49h-19.43c-.29-1.41-.58-2.78-.88-4.22h20.31v4.22Z"/>
      <path class="cls-1" d="M309.63,44.73v4.22h-19.59v-4.22h19.59Z"/>
      <path class="cls-1" d="M721.07,48.96v-4.21h19.33v4.21h-19.33Z"/>
    </g>
  </g>
</svg>